<svg width="223" height="87" viewBox="0 0 223 87" fill="none" xmlns="http://www.w3.org/2000/svg">
<path d="M72 59.1497C72 64.4143 69.9577 69.4633 66.3224 73.186C62.6871 76.9086 57.7565 79 52.6154 79H2.76923C2.03479 79 1.33042 78.7012 0.811089 78.1694C0.291757 77.6376 0 76.9163 0 76.1642C0 75.4121 0.291757 74.6909 0.811089 74.159C1.33042 73.6272 2.03479 73.3285 2.76923 73.3285H52.6154C56.2876 73.3285 59.8094 71.8346 62.4061 69.1756C65.0028 66.5166 66.4615 62.9101 66.4615 59.1497C66.4615 55.3892 65.0028 51.7828 62.4061 49.1237C59.8094 46.4647 56.2876 44.9709 52.6154 44.9709H40.5415C41.1987 48.8575 43.1713 52.383 46.1133 54.9291C49.0553 57.4751 52.7789 58.879 56.6308 58.8944C57.3652 58.8944 58.0696 59.1932 58.5889 59.725C59.1082 60.2568 59.4 60.9781 59.4 61.7302C59.4 62.4823 59.1082 63.2036 58.5889 63.7354C58.0696 64.2672 57.3652 64.566 56.6308 64.566C51.3088 64.5546 46.1729 62.5595 42.1826 58.9534C38.1923 55.3473 35.6205 50.377 34.9477 44.9709H31.5138C30.841 50.377 28.2693 55.3473 24.2789 58.9534C20.2886 62.5595 15.1527 64.5546 9.83077 64.566C9.09632 64.566 8.39196 64.2672 7.87263 63.7354C7.3533 63.2036 7.06154 62.4823 7.06154 61.7302C7.06154 60.9781 7.3533 60.2568 7.87263 59.725C8.39196 59.1932 9.09632 58.8944 9.83077 58.8944C13.6826 58.879 17.4062 57.4751 20.3482 54.9291C23.2903 52.383 25.2629 48.8575 25.92 44.9709H2.76923C2.03479 44.9709 1.33042 44.6721 0.811089 44.1403C0.291757 43.6085 0 42.8872 0 42.1351C0 41.383 0.291757 40.6617 0.811089 40.1299C1.33042 39.5981 2.03479 39.2993 2.76923 39.2993H25.92C25.2622 35.4155 23.2885 31.8933 20.3459 29.352C17.4033 26.8107 13.6801 25.4128 9.83077 25.4041C9.09632 25.4041 8.39196 25.1053 7.87263 24.5735C7.3533 24.0417 7.06154 23.3204 7.06154 22.5683C7.06154 21.8162 7.3533 21.095 7.87263 20.5632C8.39196 20.0313 9.09632 19.7326 9.83077 19.7326C15.1485 19.7431 20.281 21.7342 24.2707 25.3345C28.2604 28.9348 30.8348 33.8984 31.5138 39.2993H34.9477C35.6267 33.8984 38.2012 28.9348 42.1909 25.3345C46.1806 21.7342 51.313 19.7431 56.6308 19.7326C57.3652 19.7326 58.0696 20.0313 58.5889 20.5632C59.1082 21.095 59.4 21.8162 59.4 22.5683C59.4 23.3204 59.1082 24.0417 58.5889 24.5735C58.0696 25.1053 57.3652 25.4041 56.6308 25.4041C52.7814 25.4128 49.0582 26.8107 46.1156 29.352C43.173 31.8933 41.1994 35.4155 40.5415 39.2993H52.6154C57.7565 39.2993 62.6871 41.3907 66.3224 45.1134C69.9577 48.836 72 53.885 72 59.1497ZM24.0646 16.3864C24.0646 14.5299 24.6022 12.7152 25.6094 11.1716C26.6166 9.62801 28.0481 8.42493 29.723 7.7145C31.3979 7.00407 33.2409 6.81819 35.019 7.18036C36.7971 7.54254 38.4303 8.4365 39.7122 9.74921C40.9941 11.0619 41.8671 12.7344 42.2208 14.5552C42.5745 16.376 42.393 18.2633 41.6992 19.9784C41.0054 21.6935 39.8306 23.1595 38.3232 24.1909C36.8158 25.2222 35.0437 25.7727 33.2308 25.7727C30.7998 25.7727 28.4683 24.7838 26.7493 23.0235C25.0303 21.2633 24.0646 18.8758 24.0646 16.3864ZM29.6031 16.3864C29.5976 17.1223 29.8057 17.8433 30.2009 18.4579C30.5962 19.0725 31.1608 19.5531 31.8232 19.8386C32.4856 20.1241 33.2159 20.2017 33.9214 20.0616C34.6269 19.9215 35.2759 19.57 35.786 19.0516C36.2961 18.5332 36.6444 17.8713 36.7866 17.15C36.9288 16.4286 36.8586 15.6802 36.5849 14.9998C36.3112 14.3193 35.8462 13.7374 35.2491 13.328C34.6519 12.9185 33.9494 12.6999 33.2308 12.6999C32.2734 12.6999 31.3549 13.0873 30.6753 13.7779C29.9958 14.4684 29.6104 15.4061 29.6031 16.3864Z" fill="#0E3675"/>
<path d="M115.539 63H106.392L106.448 55.3535H115.539C117.427 55.3535 119.022 54.9004 120.325 53.9941C121.647 53.0879 122.647 51.738 123.327 49.9443C124.026 48.1318 124.375 45.904 124.375 43.2607V41.4766C124.375 39.4941 124.177 37.7572 123.78 36.2656C123.403 34.7552 122.836 33.4997 122.081 32.499C121.326 31.4795 120.382 30.7148 119.249 30.2051C118.135 29.6953 116.851 29.4404 115.397 29.4404H106.222V21.7656H115.397C118.192 21.7656 120.75 22.2471 123.072 23.21C125.413 24.154 127.434 25.5133 129.133 27.2881C130.851 29.0439 132.173 31.1302 133.098 33.5469C134.042 35.9447 134.514 38.6068 134.514 41.5332V43.2607C134.514 46.1683 134.042 48.8304 133.098 51.2471C132.173 53.6637 130.86 55.75 129.161 57.5059C127.462 59.2617 125.451 60.6211 123.129 61.584C120.826 62.528 118.296 63 115.539 63ZM112.084 21.7656V63H102.144V21.7656H112.084ZM138.054 47.9902V47.3955C138.054 45.1488 138.375 43.0814 139.017 41.1934C139.659 39.2865 140.603 37.6344 141.849 36.2373C143.095 34.8402 144.633 33.7546 146.465 32.9805C148.296 32.1875 150.411 31.791 152.809 31.791C155.225 31.791 157.349 32.1875 159.181 32.9805C161.031 33.7546 162.579 34.8402 163.825 36.2373C165.071 37.6344 166.015 39.2865 166.657 41.1934C167.299 43.0814 167.62 45.1488 167.62 47.3955V47.9902C167.62 50.2181 167.299 52.2855 166.657 54.1924C166.015 56.0804 165.071 57.7324 163.825 59.1484C162.579 60.5456 161.04 61.6312 159.209 62.4053C157.378 63.1794 155.263 63.5664 152.865 63.5664C150.467 63.5664 148.343 63.1794 146.493 62.4053C144.643 61.6312 143.095 60.5456 141.849 59.1484C140.603 57.7324 139.659 56.0804 139.017 54.1924C138.375 52.2855 138.054 50.2181 138.054 47.9902ZM147.598 47.3955V47.9902C147.598 49.1419 147.683 50.2181 147.853 51.2188C148.022 52.2194 148.306 53.0973 148.702 53.8525C149.099 54.5889 149.637 55.1647 150.316 55.5801C150.996 55.9954 151.846 56.2031 152.865 56.2031C153.866 56.2031 154.697 55.9954 155.357 55.5801C156.037 55.1647 156.575 54.5889 156.972 53.8525C157.368 53.0973 157.651 52.2194 157.821 51.2188C157.991 50.2181 158.076 49.1419 158.076 47.9902V47.3955C158.076 46.2816 157.991 45.2337 157.821 44.252C157.651 43.2513 157.368 42.3734 156.972 41.6182C156.575 40.8441 156.037 40.2399 155.357 39.8057C154.678 39.3714 153.828 39.1543 152.809 39.1543C151.808 39.1543 150.968 39.3714 150.288 39.8057C149.627 40.2399 149.099 40.8441 148.702 41.6182C148.306 42.3734 148.022 43.2513 147.853 44.252C147.683 45.2337 147.598 46.2816 147.598 47.3955ZM182.885 21.7656V63H172.973V21.7656H182.885ZM208.996 21.7656V63H199.056V21.7656H208.996ZM221.4 21.7656V29.4404H186.935V21.7656H221.4Z" fill="#0E3675"/>
</svg>
