<svg width="204" height="87" viewBox="0 0 204 87" fill="none" xmlns="http://www.w3.org/2000/svg">
<path d="M96.5391 63H87.3916L87.4482 55.3535H96.5391C98.4271 55.3535 100.022 54.9004 101.325 53.9941C102.647 53.0879 103.647 51.738 104.327 49.9443C105.026 48.1318 105.375 45.904 105.375 43.2607V41.4766C105.375 39.4941 105.177 37.7572 104.78 36.2656C104.403 34.7552 103.836 33.4997 103.081 32.499C102.326 31.4795 101.382 30.7148 100.249 30.2051C99.1351 29.6953 97.8512 29.4404 96.3975 29.4404H87.2217V21.7656H96.3975C99.1917 21.7656 101.75 22.2471 104.072 23.21C106.413 24.154 108.434 25.5133 110.133 27.2881C111.851 29.0439 113.173 31.1302 114.098 33.5469C115.042 35.9447 115.514 38.6068 115.514 41.5332V43.2607C115.514 46.1683 115.042 48.8304 114.098 51.2471C113.173 53.6637 111.86 55.75 110.161 57.5059C108.462 59.2617 106.451 60.6211 104.129 61.584C101.826 62.528 99.2956 63 96.5391 63ZM93.084 21.7656V63H83.1436V21.7656H93.084ZM119.054 47.9902V47.3955C119.054 45.1488 119.375 43.0814 120.017 41.1934C120.659 39.2865 121.603 37.6344 122.849 36.2373C124.095 34.8402 125.633 33.7546 127.465 32.9805C129.296 32.1875 131.411 31.791 133.809 31.791C136.225 31.791 138.349 32.1875 140.181 32.9805C142.031 33.7546 143.579 34.8402 144.825 36.2373C146.071 37.6344 147.015 39.2865 147.657 41.1934C148.299 43.0814 148.62 45.1488 148.62 47.3955V47.9902C148.62 50.2181 148.299 52.2855 147.657 54.1924C147.015 56.0804 146.071 57.7324 144.825 59.1484C143.579 60.5456 142.04 61.6312 140.209 62.4053C138.378 63.1794 136.263 63.5664 133.865 63.5664C131.467 63.5664 129.343 63.1794 127.493 62.4053C125.643 61.6312 124.095 60.5456 122.849 59.1484C121.603 57.7324 120.659 56.0804 120.017 54.1924C119.375 52.2855 119.054 50.2181 119.054 47.9902ZM128.598 47.3955V47.9902C128.598 49.1419 128.683 50.2181 128.853 51.2188C129.022 52.2194 129.306 53.0973 129.702 53.8525C130.099 54.5889 130.637 55.1647 131.316 55.5801C131.996 55.9954 132.846 56.2031 133.865 56.2031C134.866 56.2031 135.697 55.9954 136.357 55.5801C137.037 55.1647 137.575 54.5889 137.972 53.8525C138.368 53.0973 138.651 52.2194 138.821 51.2188C138.991 50.2181 139.076 49.1419 139.076 47.9902V47.3955C139.076 46.2816 138.991 45.2337 138.821 44.252C138.651 43.2513 138.368 42.3734 137.972 41.6182C137.575 40.8441 137.037 40.2399 136.357 39.8057C135.678 39.3714 134.828 39.1543 133.809 39.1543C132.808 39.1543 131.968 39.3714 131.288 39.8057C130.627 40.2399 130.099 40.8441 129.702 41.6182C129.306 42.3734 129.022 43.2513 128.853 44.252C128.683 45.2337 128.598 46.2816 128.598 47.3955ZM163.885 21.7656V63H153.973V21.7656H163.885ZM189.996 21.7656V63H180.056V21.7656H189.996ZM202.4 21.7656V29.4404H167.935V21.7656H202.4Z" fill="#2563EB"/>
<path fill-rule="evenodd" clip-rule="evenodd" d="M0 43C0 27.536 12.536 15 28 15C43.464 15 56 27.536 56 43C56 58.464 43.464 71 28 71C12.536 71 0 58.464 0 43ZM28 44.3038C32.4701 44.3038 36.0938 40.6698 36.0938 36.1871C36.0938 31.7043 32.4701 28.0703 28 28.0703C23.5299 28.0703 19.9062 31.7043 19.9062 36.1871C19.9062 40.6698 23.5299 44.3038 28 44.3038ZM31.7569 56.3971C32.7688 55.3823 33.3373 54.0059 33.3373 52.5708C33.3373 49.5823 30.9215 48.9633 27.9414 48.9633C24.9614 48.9633 22.5456 49.5823 22.5456 52.5708C22.5456 54.0059 23.1141 55.3823 24.126 56.3971C25.1379 57.4119 26.5104 57.982 27.9414 57.982C29.3725 57.982 30.745 57.4119 31.7569 56.3971Z" fill="#2563EB"/>
</svg>
