<svg width="336" height="359" viewBox="0 0 336 359" fill="none" xmlns="http://www.w3.org/2000/svg">
<g clip-path="url(#clip0_125_30)">
<path d="M179.705 312.066C265.944 312.066 335.854 242.207 335.854 156.033C335.854 69.8582 265.944 0 179.705 0C93.4658 0 23.5553 69.8582 23.5553 156.033C23.5553 242.207 93.4658 312.066 179.705 312.066Z" fill="#0E3675"/>
<path d="M335.861 295.368C335.861 298.572 263.093 315.933 173.33 315.933C83.5673 315.933 10.8 298.572 10.8 295.368C10.8 292.165 83.5673 297.477 173.33 297.477C263.093 297.477 335.861 292.165 335.861 295.368Z" fill="#E87B91"/>
<path opacity="0.1" d="M335.861 295.368C335.861 298.572 263.093 315.933 173.33 315.933C83.5673 315.933 10.8 298.572 10.8 295.368C10.8 292.165 83.5673 297.477 173.33 297.477C263.093 297.477 335.861 292.165 335.861 295.368Z" fill="black"/>
<path d="M173.33 301.169C263.093 301.169 335.861 298.572 335.861 295.368C335.861 292.165 263.093 289.568 173.33 289.568C83.5673 289.568 10.8 292.165 10.8 295.368C10.8 298.572 83.5673 301.169 173.33 301.169Z" fill="#E87B91"/>
<path d="M328.612 293.786V241.583" stroke="#E87B91" stroke-width="2" stroke-miterlimit="10"/>
<path d="M328.612 248.966C332.692 248.966 336 245.661 336 241.583C336 237.506 332.692 234.201 328.612 234.201C324.532 234.201 321.225 237.506 321.225 241.583C321.225 245.661 324.532 248.966 328.612 248.966Z" fill="#E87B91"/>
<path d="M328.612 273.757C328.612 273.757 327.557 251.075 305.921 253.711L328.612 273.757Z" fill="#E87B91"/>
<path d="M30.0787 297.678V125.905" stroke="#E87B91" stroke-width="2" stroke-miterlimit="10"/>
<path d="M30.0787 133.205C34.1588 133.205 37.4664 129.9 37.4664 125.823C37.4664 121.746 34.1588 118.441 30.0787 118.441C25.9985 118.441 22.6909 121.746 22.6909 125.823C22.6909 129.9 25.9985 133.205 30.0787 133.205Z" fill="#E87B91"/>
<path d="M7.38775 259.185C11.4679 259.185 14.7755 255.88 14.7755 251.803C14.7755 247.726 11.4679 244.421 7.38775 244.421C3.30761 244.421 0 247.726 0 251.803C0 255.88 3.30761 259.185 7.38775 259.185Z" fill="#E87B91"/>
<path d="M30.0787 163.532C30.0787 163.532 29.0233 140.849 7.38776 143.486L30.0787 163.532Z" fill="#E87B91"/>
<path d="M30.0787 227.833C30.0787 227.833 29.0233 205.151 7.38776 207.788L30.0787 227.833Z" fill="#E87B91"/>
<path d="M30.0787 295.649C30.0787 295.649 34.828 253.912 7.38776 251.803" stroke="#E87B91" stroke-width="2" stroke-miterlimit="10"/>
<path d="M52.7728 259.185C56.853 259.185 60.1606 255.88 60.1606 251.803C60.1606 247.726 56.853 244.421 52.7728 244.421C48.6927 244.421 45.3851 247.726 45.3851 251.803C45.3851 255.88 48.6927 259.185 52.7728 259.185Z" fill="#E87B91"/>
<path d="M30.0819 295.649C30.0819 295.649 25.3326 253.912 52.7728 251.803" stroke="#E87B91" stroke-width="2" stroke-miterlimit="10"/>
<path d="M53.2228 189.937C57.303 189.937 60.6106 186.632 60.6106 182.555C60.6106 178.478 57.303 175.173 53.2228 175.173C49.1427 175.173 45.8351 178.478 45.8351 182.555C45.8351 186.632 49.1427 189.937 53.2228 189.937Z" fill="#E87B91"/>
<path d="M30.5319 226.401C30.5319 226.401 25.7826 184.664 53.2229 182.555" stroke="#E87B91" stroke-width="2" stroke-miterlimit="10"/>
<path d="M271.789 292.732V188.326" stroke="#E87B91" stroke-width="2" stroke-miterlimit="10"/>
<path d="M271.789 195.708C275.87 195.708 279.177 192.403 279.177 188.326C279.177 184.249 275.87 180.944 271.789 180.944C267.709 180.944 264.402 184.249 264.402 188.326C264.402 192.403 267.709 195.708 271.789 195.708Z" fill="#E87B91"/>
<path d="M271.789 218.39C271.789 218.39 272.845 195.708 294.48 198.345L271.789 218.39Z" fill="#E87B91"/>
<path d="M271.789 290.703C271.789 290.703 267.04 248.966 294.48 246.856" stroke="#E87B91" stroke-width="2" stroke-miterlimit="10"/>
<path d="M294.48 254.239C298.56 254.239 301.868 250.934 301.868 246.856C301.868 242.779 298.56 239.474 294.48 239.474C290.4 239.474 287.093 242.779 287.093 246.856C287.093 250.934 290.4 254.239 294.48 254.239Z" fill="#E87B91"/>
<path d="M262.955 108.818C278.86 108.818 291.754 95.9337 291.754 80.0399C291.754 64.146 278.86 51.2615 262.955 51.2615C247.049 51.2615 234.155 64.146 234.155 80.0399C234.155 95.9337 247.049 108.818 262.955 108.818Z" fill="white"/>
<path d="M215.433 280.111C235.067 280.111 250.983 264.207 250.983 244.588C250.983 224.969 235.067 209.064 215.433 209.064C195.8 209.064 179.883 224.969 179.883 244.588C179.883 264.207 195.8 280.111 215.433 280.111Z" fill="#2F2E41"/>
<path d="M220.833 291.802H231.633V272.467H220.833V291.802Z" fill="#2F2E41"/>
<path d="M199.233 291.802H210.033V272.467H199.233V291.802Z" fill="#2F2E41"/>
<path d="M204.071 296.746C208.375 294.263 211.109 290.942 210.177 289.329C209.245 287.716 205 288.422 200.696 290.905C196.391 293.388 193.657 296.709 194.589 298.322C195.521 299.935 199.766 299.23 204.071 296.746Z" fill="#2F2E41"/>
<path d="M225.221 296.746C229.525 294.263 232.259 290.942 231.327 289.329C230.395 287.716 226.15 288.422 221.846 290.905C217.541 293.388 214.807 296.709 215.739 298.322C216.671 299.935 220.916 299.23 225.221 296.746Z" fill="#2F2E41"/>
<path d="M214.533 247.735C221.243 247.735 226.683 242.3 226.683 235.594C226.683 228.889 221.243 223.454 214.533 223.454C207.823 223.454 202.383 228.889 202.383 235.594C202.383 242.3 207.823 247.735 214.533 247.735Z" fill="white"/>
<path d="M210.395 234.47C212.632 234.47 214.445 232.658 214.445 230.423C214.445 228.188 212.632 226.376 210.395 226.376C208.159 226.376 206.345 228.188 206.345 230.423C206.345 232.658 208.159 234.47 210.395 234.47Z" fill="#E87B91"/>
<path d="M249.918 211.552C252.788 198.706 243.612 185.726 229.423 182.56C215.234 179.394 201.404 187.241 198.533 200.087C195.663 212.933 205.067 217.67 219.256 220.836C233.445 224.002 247.047 224.398 249.918 211.552Z" fill="#1962D4"/>
<path d="M200.628 239.365C201.84 236.534 195.507 231.11 186.482 227.25C177.457 223.39 169.158 222.556 167.945 225.388C166.733 228.219 173.066 233.643 182.091 237.503C191.116 241.362 199.415 242.196 200.628 239.365Z" fill="#2F2E41"/>
<path d="M267.227 263.197C268.44 260.366 262.107 254.942 253.082 251.082C244.057 247.223 235.758 246.389 234.545 249.22C233.333 252.051 239.666 257.475 248.691 261.335C257.716 265.194 266.015 266.028 267.227 263.197Z" fill="#2F2E41"/>
<path d="M222.545 260.101C222.545 262.248 221.692 264.306 220.173 265.824C218.654 267.342 216.593 268.195 214.445 268.195C212.297 268.195 210.237 267.342 208.718 265.824C207.199 264.306 206.345 262.248 206.345 260.101C206.345 255.631 209.972 254.705 214.445 254.705C218.919 254.705 222.545 255.631 222.545 260.101Z" fill="white"/>
<path d="M173.062 233.981V181.778" stroke="#6C63FF" stroke-width="2" stroke-miterlimit="10"/>
<path d="M173.062 189.161C177.142 189.161 180.449 185.855 180.449 181.778C180.449 177.701 177.142 174.396 173.062 174.396C168.982 174.396 165.674 177.701 165.674 181.778C165.674 185.855 168.982 189.161 173.062 189.161Z" fill="#1962D4"/>
<path d="M173.062 213.952C173.062 213.952 172.006 191.27 150.371 193.906L173.062 213.952Z" fill="#1962D4"/>
<path d="M103.604 198.239L106.468 204.984H109.004L105.404 187.896C105.404 176.929 100.107 167.662 89.1309 167.662C85.4507 167.662 81.9211 169.123 79.3187 171.723C76.7164 174.323 75.2545 177.85 75.2545 181.528V198.286C75.2545 199.165 75.4278 200.036 75.7647 200.849C76.1015 201.661 76.5953 202.4 77.2177 203.022C77.8401 203.644 78.579 204.137 79.3923 204.474C80.2055 204.81 81.0772 204.984 81.9574 204.984H101.636L103.604 198.239Z" fill="#2F2E41"/>
<path d="M115.58 266.07C115.58 266.07 152.93 261.573 157.43 269.667C161.93 277.761 158.78 284.506 152.93 288.553C147.08 292.6 114.68 311.036 114.68 311.036L111.98 315.533L106.13 314.633L100.28 309.237L102.98 304.291C102.98 304.291 125.48 290.801 125.93 287.204C125.93 287.204 105.23 296.647 102.98 294.848C100.73 293.05 75.5302 284.506 79.5801 279.56C83.6301 274.613 93.9801 267.419 93.9801 267.419L115.58 266.07Z" fill="#2F2E41"/>
<path opacity="0.1" d="M115.58 266.07C115.58 266.07 152.93 261.573 157.43 269.667C161.93 277.761 158.78 284.506 152.93 288.553C147.08 292.6 114.68 311.036 114.68 311.036L111.98 315.533L106.13 314.633L100.28 309.237L102.98 304.291C102.98 304.291 125.48 290.801 125.93 287.204C125.93 287.204 105.23 296.647 102.98 294.848C100.73 293.05 75.5302 284.506 79.5801 279.56C83.6301 274.613 93.9801 267.419 93.9801 267.419L115.58 266.07Z" fill="black"/>
<path d="M110.63 311.486C110.63 311.486 117.38 310.137 116.03 314.633C114.68 319.13 113.78 328.123 116.03 330.372C118.28 332.62 125.48 342.512 118.28 343.412C111.08 344.311 103.43 335.318 103.43 335.318C103.43 335.318 98.4801 320.929 94.8801 319.58C91.2801 318.231 87.6801 312.835 89.4801 311.486C91.2801 310.137 102.08 301.593 102.98 302.043C103.88 302.492 103.43 307.439 103.43 307.439C103.43 307.439 107.03 313.284 110.63 311.486Z" fill="#2F2E41"/>
<path d="M111.305 215.483L127.955 227.174C127.955 227.174 140.555 214.134 140.555 206.49C140.555 198.845 147.305 184.456 150.455 190.302C153.605 196.147 146.855 210.087 146.855 210.087L134.255 239.765C134.255 239.765 127.055 241.114 123.005 237.966C118.955 234.818 107.705 228.523 107.705 228.523L111.305 215.483Z" fill="#FFB9B9"/>
<path d="M94.8801 195.923C101.839 195.923 107.48 190.286 107.48 183.332C107.48 176.378 101.839 170.741 94.8801 170.741C87.9213 170.741 82.2802 176.378 82.2802 183.332C82.2802 190.286 87.9213 195.923 94.8801 195.923Z" fill="#FFB9B9"/>
<path d="M101.405 192.1C101.405 192.1 96.9051 203.792 98.7051 206.49C100.505 209.188 102.755 209.188 104.555 210.087C105.455 210.537 114.905 214.134 114.905 216.832C114.862 218.565 114.398 220.263 113.555 221.778L112.205 229.422L100.955 236.617L86.1051 234.818L74.8552 228.523C74.8552 228.523 73.0552 211.886 78.0051 209.188C82.9551 206.49 88.8051 200.194 88.3551 197.946C87.9051 195.698 87.4551 190.302 87.4551 190.302L101.405 192.1Z" fill="#FFB9B9"/>
<path d="M120.305 219.979C120.305 219.979 113.555 226.724 113.555 227.624C113.555 228.523 118.055 232.57 114.905 237.966C111.755 243.362 111.755 256.852 111.755 256.852L100.955 259.1L80.7051 257.301L77.5551 226.275C77.5551 226.275 85.6551 227.624 87.4551 228.973C89.2551 230.322 94.2051 227.174 97.8051 227.174C101.405 227.174 111.755 225.375 111.755 225.375L110.855 221.778L114.455 215.483L120.305 219.979Z" fill="#1962D4"/>
<path d="M94.8801 267.869C94.8801 267.869 140.33 247.634 143.93 260.674C147.53 273.714 147.98 305.19 147.98 305.19C147.98 305.19 150.23 326.774 152.93 329.023C155.63 331.271 152.93 338.016 152.93 338.016L146.18 340.264L139.88 337.566L137.18 330.372C137.18 330.372 136.28 314.184 132.68 306.09C129.08 297.996 129.08 279.11 129.53 278.211C129.53 278.211 111.98 299.795 94.8801 298.446C77.7801 297.097 75.3051 293.274 75.3051 293.274C75.3051 293.274 83.6301 267.869 94.8801 267.869Z" fill="#2F2E41"/>
<path d="M150.23 331.271C150.23 331.271 152.03 324.976 156.08 329.922C160.13 334.868 178.58 342.512 179.03 343.412C179.48 344.311 187.58 349.257 178.13 356.002C168.68 362.747 156.08 356.002 156.08 356.002C156.08 356.002 145.28 352.405 142.58 352.855C139.88 353.304 134.48 350.606 134.03 348.358C133.58 346.11 134.643 326.344 137.036 328.358C139.43 330.372 142.13 335.767 142.13 335.767C142.13 335.767 151.13 338.016 150.23 331.271Z" fill="#2F2E41"/>
<path d="M110.18 255.728C110.18 255.728 112.655 255.503 112.205 261.348C112.205 261.348 96.6801 266.07 93.9801 270.117C91.2801 274.164 79.5801 286.305 77.7801 294.848C77.7801 294.848 64.7302 291.701 71.9302 269.217L80.3954 250.878C80.3954 250.878 85.4301 261.124 110.18 255.728Z" fill="#2F2E41"/>
<path d="M99.5882 266.656L84.3051 259.999C84.3051 259.999 77.1052 245.161 77.1052 237.966C77.0179 233.826 76.6986 229.694 76.1489 225.59C75.8087 223.009 76.1051 220.384 77.0123 217.943C77.9194 215.502 79.4098 213.32 81.3537 211.586C82.9428 210.198 84.727 209.188 86.5551 209.188C86.5551 209.188 91.9551 219.08 91.0551 228.073C90.1551 237.067 92.4051 250.556 92.4051 250.556L112.739 261.431" fill="#FFB9B9"/>
<path opacity="0.1" d="M99.5882 266.656L84.3051 259.999C84.3051 259.999 77.1052 245.161 77.1052 237.966C77.1052 234.219 92.8551 223.127 91.9551 232.12C91.0551 241.114 92.4051 250.556 92.4051 250.556L112.739 261.431" fill="black"/>
<path d="M92.4051 231.221L90.9704 237.291L82.9551 241.114H76.2052L73.0552 226.724C73.0552 226.724 78.6168 225.549 81.461 227.036C84.3051 228.523 90.9841 228.879 90.9841 228.879L92.4051 231.221Z" fill="#1962D4"/>
<path d="M99.8707 168.263C97.4293 167.645 91.6406 167.662 90.7936 167.662C88.7529 167.662 86.7323 168.063 84.847 168.844C82.9617 169.624 81.2487 170.768 79.8058 172.21C78.3628 173.651 77.2182 175.363 76.4373 177.247C75.6564 179.131 75.2545 181.15 75.2545 183.189L69.4045 204.984H80.7913L82.9044 196.89L85.9045 204.984H91.6367L92.1294 200.12L94.0695 204.984H100.454C95.6725 194.172 93.1287 184.317 99.4112 178.234C103.654 178.812 107.232 177.676 107.815 175.378C108.486 172.73 104.93 169.544 99.8707 168.263Z" fill="#2F2E41"/>
</g>
<defs>
<clipPath id="clip0_125_30">
<rect width="336" height="359" fill="white"/>
</clipPath>
</defs>
</svg>
